<?xml version="1.0" encoding="UTF-8"?>
<svg width="262px" height="283px" viewBox="0 0 262 283" version="1.1" xmlns="http://www.w3.org/2000/svg" xmlns:xlink="http://www.w3.org/1999/xlink">
    <!-- Generator: Sketch 50.2 (55047) - http://www.bohemiancoding.com/sketch -->
    <title>Logo H0</title>
    <desc>Created with Sketch.</desc>
    <defs></defs>
    <g id="Page-1" stroke="none" stroke-width="1" fill="none" fill-rule="evenodd">
        <g id="Ну-логотип" transform="translate(-162.000000, -1031.000000)" fill="#2E2F33">
            <g id="Logo-H0" transform="translate(162.000000, 1031.000000)">
                <path d="M80.6855521,116.825252 C80.4351752,114.483075 81.8610108,102.955171 81.8610108,102.955171 C81.8610108,102.955171 84.726643,103.433523 87.4918357,103.737911 C90.2570284,104.042299 94.7060384,104.283477 94.7060384,104.283477 C94.7060384,104.283477 92.3071008,112.932978 93.7002618,114.907305 C96.9203928,119.470736 114.521067,130.740724 118.55664,135.263803 C120.585323,137.275155 122.644997,139.226094 125.165002,140.983318 C126.946043,142.492324 132.694468,142.66567 134.206075,144.174677 C135.216872,145.264763 136.453632,148.441529 135.833102,149.016216 C135.409688,149.408348 126.698855,149.598592 125.165002,149.324082 C123.502284,149.324082 121.511219,147.726626 121.511219,147.726626 C121.511219,147.726626 120.27435,149.016216 118.55664,148.103668 C115.529465,146.600571 115.981867,143.498985 114.214693,140.983318 C113.204314,139.978627 98.4123671,130.283005 88.8806893,124.923512 C80.7033986,120.325567 81.0668011,120.391684 80.6855521,116.825252 Z M21.8678555,86.9825337 C20.0956201,85.4125785 13.5477923,90.9988983 11.6759654,90.596121 C9.80413856,90.1933436 11.634913,85.5785637 9.97670348,85.8597191 C7.72811428,86.2409755 7.12831645,91.4861834 5.10865525,91.8936334 C1.85153985,93.113654 3.12606893e-16,88.2526987 0,82.4502281 C0,76.6477576 2.07070109,70.3248469 9.12348078,66.2762785 C16.1762605,62.22771 26.6203753,61.1963239 34.7243266,63.9060483 C42.414453,59.8029184 52.532,47.8939932 75.0661389,47.3373553 C97.6002778,46.7807174 106.037241,58.0044617 110.826951,55.3171796 C115.616662,52.6298976 117.23791,46.5709435 116.19585,42.0445846 C114.199849,33.3746273 110.328313,28.6603939 107.229817,20.9400338 C105.284342,16.0958477 105.177778,9.69709617 107.628443,5.00459866 C108.727973,2.92035754 111.398171,0.489168104 115.424654,0.0408208809 C119.451136,-0.407526342 120.51142,2.96544387 123.329513,3.88554141 C126.147605,4.80563894 132.170597,5.37201914 132.641128,7.51251145 C133.111658,9.65300377 125.884416,11.3356692 124.246016,11.1603408 C120.408556,10.7505845 117.987267,13.323949 118.195286,17.8706678 C118.442928,23.6525654 119.806722,25.717181 125.153618,33.9473943 C130.500515,42.1776076 130.451902,55.8622328 123.622926,65.4107363 C121.469432,68.2002311 119.176978,70.5697513 117.657446,73.7591524 C116.433104,76.3142193 117.657446,71.1653735 117.657446,81.3634962 C117.657446,91.5616189 112.499915,96.4705476 105.760194,98.6257121 C96.6865689,101.52719 88.8511183,100.44197 80.8376587,99.5004237 C69.7492419,98.1975835 61.0725531,98.3499542 56.5436766,99.5004237 C52.6190464,100.501175 40.3356465,107.409902 38.8240399,110.624913 C38.0216798,112.360467 33.6864984,130.424366 32.8920629,134.39191 C32.5671566,136.025025 32.7502348,139.276238 31.9914598,140.724175 C31.1613639,142.33168 21.0535373,148.685086 17.62221,149.989214 C16.0412635,150.592029 12.8489129,151.362542 12.4697517,150.810406 C10.2332987,148.244541 10.2410911,147.65018 16.739897,142.974012 C14.4699687,138.280363 21.0191547,137.134411 22.9448188,134.819682 C25.0468039,132.302045 28.8594941,104.890545 30.1665247,101.320772 C31.4735553,97.7509988 36.5754376,96.5221053 38.6437435,93.3464941 C37.6652727,92.2200049 36.310336,92.821365 32.7264612,93.8221159 C29.6517383,94.6849681 23.2308313,96.9662075 21.8678555,95.8255878 C20.5048797,94.6849681 23.6400909,88.5524889 21.8678555,86.9825337 Z" id="True-Bird"></path>
                <path d="M28.8611557,219.954407 L10.9378432,219.954407 L10.9378432,174.300486 L28.7932643,174.300486 C42.9825533,174.300486 52.8267969,183.403892 52.8267969,197.093223 C52.8267969,210.919448 42.9825533,219.954407 28.8611557,219.954407 Z M28.7932643,211.398574 C37.7549205,211.398574 42.9825533,204.896142 42.9825533,197.093223 C42.9825533,189.084964 38.0943772,182.856319 28.8611557,182.856319 L20.5784128,182.856319 L20.5784128,211.398574 L28.7932643,211.398574 Z M74.8914808,220.775766 C64.9114545,220.775766 57.3755164,213.999547 57.3755164,203.390316 C57.3755164,193.807784 64.4362152,186.073311 74.3483501,186.073311 C84.1925937,186.073311 90.7780532,193.46555 90.7780532,204.211676 L90.7780532,206.265075 L66.4050639,206.265075 C67.0160859,210.303428 70.27487,213.657314 75.8419595,213.657314 C78.6255042,213.657314 82.427419,212.493721 84.5320503,210.440321 L88.4018564,216.18984 C85.1430724,219.201493 79.9833309,220.775766 74.8914808,220.775766 Z M82.4953103,200.241769 C82.223745,197.093223 80.0512222,193.191764 74.3483501,193.191764 C68.9849346,193.191764 66.6766292,196.95633 66.3371726,200.241769 L82.4953103,200.241769 Z M106.257278,220.775766 C100.214949,220.775766 97.024056,217.62722 97.024056,211.672361 L97.024056,174.300486 L105.646256,174.300486 L105.646256,209.345175 C105.646256,211.467021 106.732517,213.041294 108.633474,213.041294 C109.92341,213.041294 111.145454,212.562168 111.620693,212.014594 L113.453759,218.65392 C112.163824,219.817513 109.787627,220.775766 106.257278,220.775766 Z M121.532828,183.335445 C118.749283,183.335445 116.440978,181.008259 116.440978,178.133499 C116.440978,175.25874 118.749283,173 121.532828,173 C124.384264,173 126.692569,175.25874 126.692569,178.133499 C126.692569,181.008259 124.384264,183.335445 121.532828,183.335445 Z M125.877873,219.954407 L117.255674,219.954407 L117.255674,186.894671 L125.877873,186.894671 L125.877873,219.954407 Z M152.219711,219.954407 L142.918598,219.954407 L129.747679,186.894671 L138.980901,186.894671 L147.535209,209.892748 L156.157409,186.894671 L165.39063,186.894671 L152.219711,219.954407 Z M184.671769,220.775766 C174.691743,220.775766 167.155805,213.999547 167.155805,203.390316 C167.155805,193.807784 174.216504,186.073311 184.128639,186.073311 C193.972882,186.073311 200.558342,193.46555 200.558342,204.211676 L200.558342,206.265075 L176.185353,206.265075 C176.796375,210.303428 180.055159,213.657314 185.622248,213.657314 C188.405793,213.657314 192.207708,212.493721 194.312339,210.440321 L198.182145,216.18984 C194.923361,219.201493 189.76362,220.775766 184.671769,220.775766 Z M192.275599,200.241769 C192.004034,197.093223 189.831511,193.191764 184.128639,193.191764 C178.765223,193.191764 176.456918,196.95633 176.117461,200.241769 L192.275599,200.241769 Z M215.426544,219.954407 L206.804345,219.954407 L206.804345,186.894671 L215.426544,186.894671 L215.426544,191.343704 C217.802741,188.468944 221.80833,186.073311 225.88181,186.073311 L225.88181,194.560697 C225.270788,194.423804 224.523983,194.355357 223.505613,194.355357 C220.654177,194.355357 216.852262,195.998077 215.426544,198.119923 L215.426544,219.954407 Z M244.551927,233.369951 C239.052729,233.369951 234.639792,231.795678 230.837877,228.441792 L234.707683,222.213146 C237.08388,225.087906 241.089469,226.251499 244.551927,226.251499 C250.119016,226.251499 253.3778,222.418486 253.3778,217.764114 L253.3778,214.341781 C251.137386,216.80586 247.199689,219.338387 241.836274,219.338387 C234.639792,219.338387 231.245225,215.368481 231.245225,208.934495 L231.245225,186.894671 L239.867425,186.894671 L239.867425,205.512162 C239.867425,210.098088 242.243622,211.603914 245.909754,211.603914 C249.236429,211.603914 251.884191,209.755855 253.3778,207.839348 L253.3778,186.894671 L262,186.894671 L262,217.764114 C262,227.688879 255.007192,233.369951 244.551927,233.369951 Z M32.1693153,283 C18.5231569,283 8,273.417468 8,259.385903 C8,245.285892 18.5231569,235.771807 32.1693153,235.771807 C42.0814502,235.771807 47.8522136,241.179093 51.0431064,246.928612 L42.7603635,251.035411 C40.8594061,247.339292 36.785926,244.396086 32.1693153,244.396086 C23.8865724,244.396086 17.9121349,250.761625 17.9121349,259.385903 C17.9121349,268.010182 23.8865724,274.375721 32.1693153,274.375721 C36.785926,274.375721 40.8594061,271.432515 42.7603635,267.736396 L51.0431064,271.774748 C47.8522136,277.455821 42.0814502,283 32.1693153,283 Z M66.6087379,283 C60.5664091,283 57.3755164,279.851454 57.3755164,273.896595 L57.3755164,236.52472 L65.9977159,236.52472 L65.9977159,271.569408 C65.9977159,273.691255 67.0839773,275.265528 68.9849346,275.265528 C70.27487,275.265528 71.496914,274.786401 71.9721534,274.238828 L73.8052194,280.878154 C72.5152841,282.041747 70.1390873,283 66.6087379,283 Z M108.361909,282.17864 L99.7397094,282.17864 L99.7397094,278.003394 C97.4992953,280.467474 93.5615979,283 88.1981824,283 C81.0017009,283 77.6071342,279.030094 77.6071342,272.596108 L77.6071342,249.118905 L86.2293337,249.118905 L86.2293337,269.173775 C86.2293337,273.759701 88.6055304,275.265528 92.2716625,275.265528 C95.598338,275.265528 98.2461,273.417468 99.7397094,271.500962 L99.7397094,249.118905 L108.361909,249.118905 L108.361909,282.17864 Z M125.538417,271.569408 C127.032026,273.691255 130.155027,275.265528 133.006464,275.265528 C137.962531,275.265528 141.289206,271.364068 141.289206,265.614549 C141.289206,259.933477 137.962531,256.032017 133.006464,256.032017 C130.155027,256.032017 127.032026,257.674737 125.538417,259.86503 L125.538417,271.569408 Z M125.538417,282.17864 L116.916217,282.17864 L116.916217,236.52472 L125.538417,236.52472 L125.538417,253.362598 C128.118287,249.940265 131.784419,248.297545 135.654226,248.297545 C144.00486,248.297545 150.182971,254.868424 150.182971,265.614549 C150.182971,276.702908 143.936968,283 135.654226,283 C131.716528,283 128.118287,281.220387 125.538417,277.934947 L125.538417,282.17864 Z" id="Delivery-Club"></path>
            </g>
        </g>
    </g>
</svg>